<svg xmlns="http://www.w3.org/2000/svg" xmlns:xlink="http://www.w3.org/1999/xlink" width="700" zoomAndPan="magnify" viewBox="0 0 525 374.999991" height="500" preserveAspectRatio="xMidYMid meet" version="1.0"><defs><clipPath id="3d5472918d"><path d="M 99.6875 0 L 425.1875 0 L 425.1875 375 L 99.6875 375 Z M 99.6875 0 " clip-rule="nonzero"/></clipPath></defs><rect x="-52.5" width="630" fill="#ffffff" y="-37.499999" height="449.999989" fill-opacity="1"/><rect x="-52.5" width="630" fill="#d1d1d1" y="-37.499999" height="449.999989" fill-opacity="1"/><path fill="#00aeef" d="M 321.917969 86.144531 L 321.917969 337.289062 L 311.550781 343.285156 L 293.019531 332.53125 L 293.019531 102.832031 L 311.550781 92.128906 Z M 321.917969 86.144531 " fill-opacity="1" fill-rule="nonzero"/><path fill="#00aeef" d="M 231.835938 102.832031 L 231.835938 263.542969 L 202.921875 280.238281 L 202.921875 86.144531 L 213.304688 92.128906 Z M 231.835938 102.832031 " fill-opacity="1" fill-rule="nonzero"/><g clip-path="url(#3d5472918d)"><path fill="#1e3f62" d="M 423.511719 92.550781 L 264.085938 0.464844 C 264.027344 0.429688 263.96875 0.410156 263.910156 0.382812 C 263.804688 0.328125 263.703125 0.28125 263.59375 0.242188 C 263.488281 0.199219 263.382812 0.171875 263.277344 0.140625 C 263.175781 0.117188 263.082031 0.09375 262.976562 0.078125 C 262.851562 0.0585938 262.730469 0.046875 262.605469 0.0429688 C 262.546875 0.0429688 262.488281 0.0234375 262.429688 0.0234375 C 262.394531 0.0234375 262.359375 0.0351562 262.324219 0.0351562 C 262.203125 0.0429688 262.078125 0.0546875 261.960938 0.0703125 C 261.859375 0.0820312 261.765625 0.101562 261.667969 0.117188 C 261.5625 0.140625 261.457031 0.175781 261.355469 0.21875 C 261.257812 0.253906 261.15625 0.28125 261.0625 0.328125 C 260.960938 0.375 260.875 0.429688 260.78125 0.480469 C 260.691406 0.535156 260.597656 0.582031 260.515625 0.644531 C 260.429688 0.710938 260.347656 0.78125 260.265625 0.851562 C 260.183594 0.921875 260.105469 0.992188 260.03125 1.070312 C 259.957031 1.144531 259.898438 1.222656 259.835938 1.304688 C 259.757812 1.398438 259.6875 1.492188 259.628906 1.589844 C 259.613281 1.621094 259.582031 1.644531 259.566406 1.679688 C 259.535156 1.734375 259.519531 1.792969 259.488281 1.851562 C 259.4375 1.957031 259.382812 2.066406 259.34375 2.179688 C 259.308594 2.277344 259.277344 2.378906 259.25 2.484375 C 259.21875 2.589844 259.195312 2.691406 259.179688 2.796875 C 259.160156 2.914062 259.148438 3.03125 259.144531 3.148438 C 259.136719 3.210938 259.125 3.269531 259.125 3.335938 L 259.125 365.90625 L 233.503906 351.113281 C 233.503906 351.113281 233.496094 351.113281 233.496094 351.113281 L 225.261719 346.367188 C 225.261719 346.367188 225.253906 346.367188 225.253906 346.367188 L 214.96875 340.417969 L 214.960938 340.410156 L 135.25 294.371094 C 135.25 294.371094 135.25 294.371094 135.242188 294.371094 L 106.308594 277.667969 L 106.308594 97.332031 L 209.988281 37.460938 L 209.988281 86.398438 L 204.570312 83.277344 C 204.539062 83.261719 204.511719 83.261719 204.480469 83.242188 C 204.253906 83.121094 204.019531 83.011719 203.765625 82.949219 C 203.746094 82.941406 203.734375 82.941406 203.71875 82.941406 C 203.484375 82.882812 203.242188 82.855469 202.996094 82.847656 C 202.925781 82.847656 202.855469 82.847656 202.777344 82.855469 C 202.578125 82.859375 202.386719 82.890625 202.1875 82.929688 C 202.121094 82.941406 202.058594 82.953125 201.988281 82.976562 C 201.734375 83.046875 201.488281 83.144531 201.246094 83.285156 L 131.929688 123.320312 C 130.910156 123.914062 130.277344 125.007812 130.277344 126.195312 L 130.277344 240 C 130.277344 240.035156 130.289062 240.070312 130.289062 240.105469 C 130.292969 240.226562 130.304688 240.34375 130.324219 240.460938 C 130.335938 240.558594 130.351562 240.664062 130.371094 240.765625 C 130.394531 240.871094 130.429688 240.964844 130.464844 241.070312 C 130.5 241.175781 130.535156 241.277344 130.574219 241.375 C 130.617188 241.46875 130.675781 241.5625 130.726562 241.652344 C 130.78125 241.746094 130.832031 241.839844 130.890625 241.921875 C 130.957031 242.011719 131.027344 242.085938 131.097656 242.167969 C 131.167969 242.25 131.238281 242.332031 131.316406 242.402344 C 131.386719 242.472656 131.46875 242.53125 131.550781 242.597656 C 131.644531 242.675781 131.738281 242.746094 131.84375 242.808594 C 131.871094 242.828125 131.894531 242.851562 131.925781 242.867188 L 201.257812 283.105469 L 201.265625 283.113281 C 201.523438 283.257812 201.792969 283.371094 202.070312 283.445312 C 202.351562 283.523438 202.632812 283.558594 202.914062 283.558594 C 203.03125 283.558594 203.148438 283.523438 203.273438 283.511719 C 203.4375 283.492188 203.601562 283.488281 203.757812 283.445312 C 203.847656 283.421875 203.929688 283.371094 204.019531 283.339844 C 204.199219 283.277344 204.386719 283.21875 204.558594 283.117188 C 204.5625 283.117188 204.570312 283.113281 204.570312 283.113281 L 233.484375 266.414062 C 234.507812 265.820312 235.140625 264.726562 235.140625 263.542969 L 235.140625 102.832031 C 235.140625 101.644531 234.507812 100.550781 233.484375 99.957031 L 216.605469 90.214844 L 216.605469 31.714844 C 216.605469 31.652344 216.589844 31.59375 216.589844 31.527344 C 216.582031 31.410156 216.570312 31.292969 216.554688 31.175781 C 216.535156 31.070312 216.511719 30.964844 216.484375 30.859375 C 216.453125 30.757812 216.429688 30.660156 216.386719 30.558594 C 216.347656 30.441406 216.292969 30.335938 216.234375 30.222656 C 216.207031 30.171875 216.195312 30.113281 216.160156 30.054688 C 216.140625 30.023438 216.117188 29.996094 216.09375 29.964844 C 216.03125 29.867188 215.960938 29.773438 215.890625 29.679688 C 215.824219 29.59375 215.765625 29.511719 215.695312 29.441406 C 215.621094 29.367188 215.542969 29.296875 215.460938 29.226562 C 215.378906 29.15625 215.296875 29.085938 215.214844 29.019531 C 215.125 28.960938 215.039062 28.910156 214.945312 28.855469 C 214.851562 28.800781 214.761719 28.75 214.664062 28.703125 C 214.570312 28.660156 214.460938 28.625 214.363281 28.589844 C 214.257812 28.554688 214.15625 28.519531 214.050781 28.496094 C 213.957031 28.472656 213.859375 28.460938 213.757812 28.449219 C 213.636719 28.433594 213.515625 28.414062 213.394531 28.414062 C 213.359375 28.414062 213.324219 28.402344 213.289062 28.402344 C 213.230469 28.402344 213.171875 28.414062 213.113281 28.421875 C 212.988281 28.425781 212.867188 28.4375 212.742188 28.457031 C 212.644531 28.472656 212.542969 28.496094 212.449219 28.527344 C 212.34375 28.554688 212.238281 28.585938 212.132812 28.625 C 212.019531 28.667969 211.921875 28.714844 211.816406 28.765625 C 211.757812 28.796875 211.699219 28.816406 211.640625 28.851562 L 101.34375 92.550781 C 100.320312 93.144531 99.6875 94.238281 99.6875 95.425781 L 99.6875 279.582031 C 99.6875 280.769531 100.320312 281.859375 101.34375 282.453125 L 131.929688 300.113281 L 131.9375 300.113281 L 211.652344 346.15625 L 221.929688 352.101562 L 221.9375 352.101562 L 230.175781 356.851562 C 230.175781 356.851562 230.179688 356.855469 230.179688 356.855469 L 260.773438 374.519531 C 260.816406 374.542969 260.855469 374.546875 260.898438 374.570312 C 261.074219 374.664062 261.261719 374.742188 261.457031 374.800781 C 261.527344 374.824219 261.589844 374.847656 261.660156 374.863281 C 261.902344 374.921875 262.15625 374.957031 262.417969 374.964844 C 262.425781 374.964844 262.425781 374.964844 262.425781 374.964844 L 262.429688 374.964844 C 262.699219 374.964844 262.960938 374.921875 263.207031 374.863281 C 263.269531 374.847656 263.335938 374.824219 263.398438 374.804688 C 263.585938 374.746094 263.761719 374.675781 263.941406 374.589844 C 264.011719 374.554688 264.074219 374.519531 264.144531 374.476562 C 264.339844 374.359375 264.519531 374.226562 264.683594 374.066406 C 264.707031 374.042969 264.738281 374.023438 264.761719 374 C 264.949219 373.8125 265.101562 373.601562 265.242188 373.378906 C 265.261719 373.351562 265.285156 373.332031 265.296875 373.308594 C 265.332031 373.25 265.34375 373.191406 265.371094 373.132812 C 265.425781 373.027344 265.472656 372.921875 265.511719 372.816406 C 265.554688 372.714844 265.582031 372.609375 265.605469 372.503906 C 265.636719 372.402344 265.660156 372.304688 265.675781 372.199219 C 265.695312 372.074219 265.707031 371.957031 265.710938 371.835938 C 265.71875 371.769531 265.730469 371.710938 265.730469 371.652344 L 265.730469 9.074219 L 418.535156 97.332031 L 418.535156 277.660156 L 394.550781 291.5 L 394.550781 126.1875 C 394.550781 125 393.921875 123.910156 392.894531 123.316406 L 323.566406 83.273438 C 323.332031 83.136719 323.082031 83.042969 322.828125 82.964844 C 322.761719 82.949219 322.699219 82.9375 322.628906 82.917969 C 322.429688 82.878906 322.234375 82.847656 322.035156 82.84375 C 321.964844 82.84375 321.894531 82.835938 321.824219 82.835938 C 321.570312 82.84375 321.324219 82.871094 321.085938 82.929688 C 321.078125 82.929688 321.066406 82.929688 321.0625 82.9375 C 320.808594 83.007812 320.566406 83.113281 320.339844 83.238281 C 320.316406 83.25 320.285156 83.253906 320.261719 83.265625 L 291.359375 99.953125 C 290.332031 100.546875 289.703125 101.636719 289.703125 102.824219 L 289.703125 332.523438 C 289.703125 333.703125 290.332031 334.796875 291.351562 335.390625 L 309.886719 346.144531 C 310.40625 346.445312 310.972656 346.589844 311.550781 346.589844 C 312.125 346.589844 312.695312 346.445312 313.210938 346.144531 L 323.578125 340.148438 C 324.601562 339.554688 325.234375 338.460938 325.234375 337.28125 L 325.234375 91.886719 L 387.941406 128.101562 L 387.941406 297.242188 C 387.941406 297.308594 387.957031 297.367188 387.957031 297.429688 C 387.964844 297.546875 387.976562 297.664062 387.992188 297.785156 C 388.011719 297.890625 388.035156 297.996094 388.0625 298.101562 C 388.09375 298.199219 388.121094 298.300781 388.15625 298.398438 C 388.199219 298.519531 388.25 298.625 388.304688 298.730469 C 388.332031 298.78125 388.34375 298.839844 388.378906 298.894531 C 388.390625 298.917969 388.414062 298.933594 388.433594 298.964844 C 388.574219 299.191406 388.726562 299.40625 388.921875 299.59375 C 388.945312 299.617188 388.96875 299.628906 388.992188 299.652344 C 389.15625 299.808594 389.34375 299.945312 389.535156 300.0625 C 389.601562 300.101562 389.671875 300.136719 389.742188 300.175781 C 389.914062 300.261719 390.09375 300.332031 390.28125 300.390625 C 390.347656 300.410156 390.410156 300.4375 390.476562 300.449219 C 390.722656 300.507812 390.980469 300.550781 391.25 300.550781 L 391.261719 300.550781 C 391.519531 300.550781 391.773438 300.507812 392.019531 300.449219 C 392.089844 300.433594 392.15625 300.410156 392.226562 300.386719 C 392.417969 300.328125 392.605469 300.25 392.785156 300.15625 C 392.824219 300.132812 392.867188 300.125 392.90625 300.109375 L 423.511719 282.449219 C 424.539062 281.855469 425.167969 280.761719 425.167969 279.574219 L 425.167969 95.425781 C 425.167969 94.238281 424.535156 93.144531 423.511719 92.550781 Z M 199.609375 91.886719 L 199.609375 274.488281 L 136.902344 238.09375 L 136.902344 128.101562 Z M 228.523438 261.628906 L 206.230469 274.5 L 206.230469 91.875 L 228.523438 104.738281 Z M 318.605469 335.371094 L 311.554688 339.449219 L 296.332031 330.617188 L 296.332031 104.746094 L 318.605469 91.882812 Z M 318.605469 335.371094 " fill-opacity="1" fill-rule="nonzero"/></g></svg>