<svg xmlns="http://www.w3.org/2000/svg" xmlns:xlink="http://www.w3.org/1999/xlink" width="700" zoomAndPan="magnify" viewBox="0 0 525 374.999991" height="500" preserveAspectRatio="xMidYMid meet" version="1.0"><defs><g/><clipPath id="6c5fe3e503"><path d="M 2.753906 77.84375 L 193.253906 77.84375 L 193.253906 296.84375 L 2.753906 296.84375 Z M 2.753906 77.84375 " clip-rule="nonzero"/></clipPath></defs><g fill="#000000" fill-opacity="1"><g transform="translate(191.823773, 211.750006)"><g><path d="M 6.609375 -44.109375 L 25.203125 -44.109375 C 29.867188 -44.109375 34.007812 -43.179688 37.625 -41.328125 C 41.238281 -39.484375 44.039062 -36.890625 46.03125 -33.546875 C 48.03125 -30.210938 49.03125 -26.382812 49.03125 -22.0625 C 49.03125 -17.726562 48.03125 -13.890625 46.03125 -10.546875 C 44.039062 -7.210938 41.238281 -4.617188 37.625 -2.765625 C 34.007812 -0.921875 29.867188 0 25.203125 0 L 6.609375 0 Z M 24.828125 -5.484375 C 28.398438 -5.484375 31.539062 -6.175781 34.25 -7.5625 C 36.957031 -8.945312 39.046875 -10.890625 40.515625 -13.390625 C 41.984375 -15.890625 42.71875 -18.78125 42.71875 -22.0625 C 42.71875 -25.332031 41.984375 -28.21875 40.515625 -30.71875 C 39.046875 -33.21875 36.957031 -35.160156 34.25 -36.546875 C 31.539062 -37.929688 28.398438 -38.625 24.828125 -38.625 L 12.921875 -38.625 L 12.921875 -5.484375 Z M 24.828125 -5.484375 "/></g></g></g><g fill="#000000" fill-opacity="1"><g transform="translate(243.871442, 211.750006)"><g><path d="M 23.5 -15.25 L 23.5 0 L 17.265625 0 L 17.265625 -15.375 L -0.25 -44.109375 L 6.484375 -44.109375 L 20.609375 -20.859375 L 34.78125 -44.109375 L 41.015625 -44.109375 Z M 23.5 -15.25 "/></g></g></g><g fill="#000000" fill-opacity="1"><g transform="translate(284.640009, 211.750006)"><g><path d="M 44.546875 -44.109375 L 44.546875 0 L 39.390625 0 L 12.921875 -32.890625 L 12.921875 0 L 6.609375 0 L 6.609375 -44.109375 L 11.78125 -44.109375 L 38.25 -11.21875 L 38.25 -44.109375 Z M 44.546875 -44.109375 "/></g></g></g><g fill="#000000" fill-opacity="1"><g transform="translate(335.80551, 211.750006)"><g><path d="M 34.71875 -11.03125 L 11.28125 -11.03125 L 6.421875 0 L -0.0625 0 L 19.90625 -44.109375 L 26.15625 -44.109375 L 46.1875 0 L 39.578125 0 Z M 32.515625 -16.0625 L 23 -37.6875 L 13.484375 -16.0625 Z M 32.515625 -16.0625 "/></g></g></g><g fill="#000000" fill-opacity="1"><g transform="translate(381.930072, 211.750006)"><g><path d="M 47.515625 0 L 47.453125 -32.140625 L 31.515625 -5.359375 L 28.609375 -5.359375 L 12.671875 -31.953125 L 12.671875 0 L 6.609375 0 L 6.609375 -44.109375 L 11.78125 -44.109375 L 30.1875 -13.109375 L 48.328125 -44.109375 L 53.5 -44.109375 L 53.5625 0 Z M 47.515625 0 "/></g></g></g><g fill="#000000" fill-opacity="1"><g transform="translate(442.10625, 211.750006)"><g><path d="M 6.609375 -44.109375 L 12.921875 -44.109375 L 12.921875 0 L 6.609375 0 Z M 6.609375 -44.109375 "/></g></g></g><g fill="#000000" fill-opacity="1"><g transform="translate(461.639871, 211.750006)"><g><path d="M 26.34375 0.5 C 21.925781 0.5 17.941406 -0.472656 14.390625 -2.421875 C 10.847656 -4.378906 8.066406 -7.066406 6.046875 -10.484375 C 4.035156 -13.910156 3.03125 -17.769531 3.03125 -22.0625 C 3.03125 -26.34375 4.035156 -30.191406 6.046875 -33.609375 C 8.066406 -37.035156 10.859375 -39.722656 14.421875 -41.671875 C 17.992188 -43.628906 21.988281 -44.609375 26.40625 -44.609375 C 29.851562 -44.609375 33.003906 -44.03125 35.859375 -42.875 C 38.710938 -41.726562 41.148438 -40.019531 43.171875 -37.75 L 39.0625 -33.78125 C 35.75 -37.257812 31.613281 -39 26.65625 -39 C 23.375 -39 20.410156 -38.265625 17.765625 -36.796875 C 15.117188 -35.328125 13.050781 -33.300781 11.5625 -30.71875 C 10.070312 -28.132812 9.328125 -25.25 9.328125 -22.0625 C 9.328125 -18.863281 10.070312 -15.972656 11.5625 -13.390625 C 13.050781 -10.804688 15.117188 -8.78125 17.765625 -7.3125 C 20.410156 -5.84375 23.375 -5.109375 26.65625 -5.109375 C 31.570312 -5.109375 35.707031 -6.867188 39.0625 -10.390625 L 43.171875 -6.421875 C 41.148438 -4.160156 38.703125 -2.441406 35.828125 -1.265625 C 32.953125 -0.0859375 29.789062 0.5 26.34375 0.5 Z M 26.34375 0.5 "/></g></g></g><path fill="#475be8" d="M 132.816406 128.152344 L 132.816406 274.824219 L 126.75 278.324219 L 115.902344 272.042969 L 115.902344 137.894531 L 126.75 131.644531 Z M 132.816406 128.152344 " fill-opacity="1" fill-rule="nonzero"/><path fill="#475be8" d="M 80.097656 137.894531 L 80.097656 231.753906 L 63.171875 241.507812 L 63.171875 128.152344 L 69.25 131.644531 Z M 80.097656 137.894531 " fill-opacity="1" fill-rule="nonzero"/><g clip-path="url(#6c5fe3e503)"><path fill="#000000" d="M 192.277344 131.894531 L 98.96875 78.113281 C 98.9375 78.09375 98.902344 78.082031 98.867188 78.066406 C 98.804688 78.035156 98.746094 78.007812 98.683594 77.984375 C 98.621094 77.957031 98.558594 77.941406 98.496094 77.925781 C 98.4375 77.910156 98.382812 77.898438 98.320312 77.886719 C 98.25 77.875 98.175781 77.871094 98.105469 77.867188 C 98.070312 77.867188 98.035156 77.855469 98 77.855469 C 97.980469 77.855469 97.960938 77.863281 97.941406 77.863281 C 97.867188 77.867188 97.796875 77.871094 97.726562 77.882812 C 97.667969 77.890625 97.613281 77.898438 97.554688 77.910156 C 97.492188 77.925781 97.429688 77.945312 97.371094 77.96875 C 97.3125 77.988281 97.257812 78.007812 97.199219 78.035156 C 97.140625 78.0625 97.089844 78.09375 97.035156 78.125 C 96.984375 78.152344 96.929688 78.179688 96.882812 78.21875 C 96.828125 78.257812 96.78125 78.296875 96.734375 78.339844 C 96.683594 78.378906 96.640625 78.421875 96.597656 78.464844 C 96.554688 78.511719 96.519531 78.554688 96.484375 78.601562 C 96.4375 78.65625 96.398438 78.714844 96.363281 78.769531 C 96.351562 78.789062 96.335938 78.800781 96.324219 78.824219 C 96.308594 78.855469 96.296875 78.886719 96.28125 78.921875 C 96.25 78.984375 96.21875 79.050781 96.195312 79.113281 C 96.171875 79.171875 96.15625 79.230469 96.140625 79.292969 C 96.121094 79.355469 96.109375 79.414062 96.097656 79.472656 C 96.085938 79.542969 96.082031 79.613281 96.078125 79.679688 C 96.074219 79.71875 96.066406 79.753906 96.066406 79.789062 L 96.066406 291.539062 L 81.070312 282.898438 C 81.070312 282.898438 81.066406 282.898438 81.066406 282.898438 L 76.246094 280.125 C 76.246094 280.125 76.242188 280.125 76.242188 280.125 L 70.222656 276.652344 L 70.21875 276.648438 L 23.566406 249.757812 C 23.566406 249.757812 23.566406 249.757812 23.5625 249.757812 L 6.632812 240.003906 L 6.632812 134.6875 L 67.308594 99.71875 L 67.308594 128.296875 L 64.136719 126.476562 C 64.121094 126.46875 64.105469 126.46875 64.085938 126.457031 C 63.953125 126.382812 63.816406 126.324219 63.667969 126.285156 C 63.65625 126.28125 63.648438 126.28125 63.640625 126.28125 C 63.503906 126.246094 63.363281 126.230469 63.21875 126.226562 C 63.175781 126.226562 63.136719 126.226562 63.089844 126.230469 C 62.972656 126.234375 62.859375 126.25 62.742188 126.273438 C 62.707031 126.28125 62.667969 126.289062 62.625 126.300781 C 62.480469 126.34375 62.335938 126.398438 62.195312 126.480469 L 21.625 149.863281 C 21.027344 150.210938 20.65625 150.847656 20.65625 151.542969 L 20.65625 218.007812 C 20.65625 218.027344 20.664062 218.046875 20.664062 218.066406 C 20.667969 218.136719 20.675781 218.207031 20.683594 218.273438 C 20.691406 218.332031 20.703125 218.394531 20.710938 218.453125 C 20.726562 218.515625 20.746094 218.570312 20.765625 218.628906 C 20.789062 218.691406 20.808594 218.75 20.832031 218.808594 C 20.855469 218.863281 20.890625 218.917969 20.921875 218.96875 C 20.953125 219.023438 20.984375 219.078125 21.019531 219.128906 C 21.054688 219.179688 21.097656 219.222656 21.136719 219.273438 C 21.179688 219.320312 21.222656 219.367188 21.265625 219.410156 C 21.308594 219.449219 21.355469 219.484375 21.402344 219.523438 C 21.457031 219.566406 21.511719 219.609375 21.574219 219.644531 C 21.59375 219.65625 21.605469 219.667969 21.621094 219.679688 L 62.199219 243.179688 L 62.203125 243.183594 C 62.355469 243.269531 62.511719 243.335938 62.675781 243.378906 C 62.839844 243.421875 63.003906 243.445312 63.167969 243.445312 C 63.238281 243.445312 63.308594 243.421875 63.378906 243.417969 C 63.476562 243.40625 63.570312 243.402344 63.664062 243.378906 C 63.714844 243.363281 63.765625 243.335938 63.816406 243.316406 C 63.921875 243.28125 64.03125 243.246094 64.132812 243.1875 C 64.136719 243.1875 64.136719 243.183594 64.136719 243.183594 L 81.0625 233.429688 C 81.660156 233.085938 82.03125 232.445312 82.03125 231.753906 L 82.03125 137.894531 C 82.03125 137.203125 81.660156 136.566406 81.0625 136.21875 L 71.183594 130.527344 L 71.183594 96.363281 C 71.183594 96.328125 71.171875 96.292969 71.171875 96.253906 C 71.167969 96.1875 71.160156 96.117188 71.152344 96.050781 C 71.140625 95.988281 71.128906 95.925781 71.109375 95.863281 C 71.09375 95.804688 71.078125 95.746094 71.054688 95.6875 C 71.03125 95.621094 71 95.558594 70.964844 95.492188 C 70.949219 95.460938 70.941406 95.429688 70.921875 95.394531 C 70.910156 95.375 70.898438 95.359375 70.882812 95.34375 C 70.84375 95.285156 70.804688 95.230469 70.761719 95.175781 C 70.726562 95.125 70.691406 95.078125 70.648438 95.035156 C 70.605469 94.992188 70.558594 94.953125 70.511719 94.910156 C 70.464844 94.867188 70.417969 94.828125 70.367188 94.789062 C 70.316406 94.753906 70.265625 94.726562 70.210938 94.695312 C 70.15625 94.664062 70.101562 94.632812 70.046875 94.605469 C 69.988281 94.582031 69.929688 94.558594 69.871094 94.539062 C 69.808594 94.519531 69.75 94.5 69.6875 94.484375 C 69.632812 94.472656 69.574219 94.464844 69.515625 94.457031 C 69.445312 94.445312 69.375 94.4375 69.304688 94.4375 C 69.28125 94.4375 69.261719 94.429688 69.242188 94.429688 C 69.207031 94.429688 69.171875 94.4375 69.136719 94.441406 C 69.066406 94.445312 68.992188 94.449219 68.921875 94.460938 C 68.863281 94.472656 68.804688 94.484375 68.75 94.5 C 68.6875 94.519531 68.625 94.535156 68.5625 94.558594 C 68.5 94.585938 68.441406 94.613281 68.378906 94.640625 C 68.34375 94.660156 68.308594 94.671875 68.277344 94.691406 L 3.722656 131.894531 C 3.125 132.238281 2.753906 132.878906 2.753906 133.570312 L 2.753906 241.121094 C 2.753906 241.816406 3.125 242.453125 3.722656 242.800781 L 21.625 253.113281 L 21.628906 253.113281 L 68.28125 280.003906 L 74.300781 283.472656 L 79.125 286.25 L 97.03125 296.566406 C 97.054688 296.578125 97.082031 296.582031 97.105469 296.597656 C 97.207031 296.652344 97.316406 296.695312 97.429688 296.730469 C 97.472656 296.746094 97.511719 296.757812 97.550781 296.769531 C 97.691406 296.800781 97.839844 296.824219 97.996094 296.828125 C 98 296.828125 98 296.828125 98 296.828125 C 98.160156 296.828125 98.3125 296.800781 98.457031 296.769531 C 98.492188 296.757812 98.53125 296.746094 98.570312 296.734375 C 98.679688 296.699219 98.78125 296.660156 98.882812 296.605469 C 98.925781 296.585938 98.964844 296.566406 99.003906 296.542969 C 99.117188 296.472656 99.226562 296.394531 99.320312 296.300781 C 99.335938 296.289062 99.351562 296.277344 99.367188 296.265625 C 99.476562 296.15625 99.566406 296.03125 99.648438 295.902344 C 99.65625 295.882812 99.671875 295.875 99.679688 295.859375 C 99.699219 295.824219 99.707031 295.789062 99.722656 295.757812 C 99.753906 295.695312 99.78125 295.632812 99.804688 295.570312 C 99.828125 295.511719 99.847656 295.453125 99.859375 295.390625 C 99.878906 295.332031 99.890625 295.273438 99.902344 295.210938 C 99.910156 295.140625 99.917969 295.070312 99.921875 295 C 99.925781 294.960938 99.933594 294.925781 99.933594 294.890625 L 99.933594 83.140625 L 189.363281 134.6875 L 189.363281 240 L 175.324219 248.082031 L 175.324219 151.539062 C 175.324219 150.84375 174.957031 150.207031 174.355469 149.859375 L 133.78125 126.472656 C 133.644531 126.394531 133.496094 126.339844 133.347656 126.296875 C 133.3125 126.285156 133.273438 126.277344 133.230469 126.269531 C 133.117188 126.242188 133.003906 126.226562 132.886719 126.222656 C 132.84375 126.222656 132.804688 126.21875 132.761719 126.21875 C 132.613281 126.222656 132.46875 126.242188 132.328125 126.273438 C 132.324219 126.273438 132.316406 126.273438 132.316406 126.277344 C 132.167969 126.320312 132.027344 126.382812 131.890625 126.453125 C 131.878906 126.460938 131.863281 126.464844 131.847656 126.46875 L 114.929688 136.214844 C 114.332031 136.5625 113.960938 137.199219 113.960938 137.894531 L 113.960938 272.039062 C 113.960938 272.730469 114.332031 273.367188 114.929688 273.714844 L 125.777344 279.996094 C 126.078125 280.171875 126.410156 280.253906 126.75 280.253906 C 127.085938 280.253906 127.417969 280.171875 127.722656 279.996094 L 133.789062 276.492188 C 134.386719 276.148438 134.757812 275.507812 134.757812 274.820312 L 134.757812 131.503906 L 171.457031 152.65625 L 171.457031 251.4375 C 171.457031 251.472656 171.464844 251.507812 171.464844 251.546875 C 171.46875 251.613281 171.476562 251.683594 171.488281 251.75 C 171.496094 251.8125 171.511719 251.875 171.527344 251.9375 C 171.546875 251.996094 171.5625 252.054688 171.582031 252.113281 C 171.605469 252.179688 171.636719 252.242188 171.667969 252.304688 C 171.6875 252.335938 171.691406 252.367188 171.714844 252.398438 C 171.71875 252.414062 171.734375 252.425781 171.746094 252.441406 C 171.828125 252.574219 171.917969 252.699219 172.03125 252.808594 C 172.042969 252.820312 172.058594 252.828125 172.070312 252.84375 C 172.167969 252.933594 172.277344 253.015625 172.390625 253.082031 C 172.429688 253.105469 172.46875 253.128906 172.511719 253.148438 C 172.609375 253.199219 172.71875 253.242188 172.828125 253.273438 C 172.863281 253.285156 172.902344 253.300781 172.941406 253.308594 C 173.085938 253.34375 173.234375 253.367188 173.394531 253.367188 L 173.402344 253.367188 C 173.550781 253.367188 173.699219 253.34375 173.84375 253.308594 C 173.886719 253.296875 173.921875 253.285156 173.964844 253.269531 C 174.078125 253.238281 174.1875 253.191406 174.289062 253.136719 C 174.316406 253.125 174.339844 253.121094 174.363281 253.109375 L 192.277344 242.796875 C 192.878906 242.449219 193.246094 241.8125 193.246094 241.117188 L 193.246094 133.570312 C 193.246094 132.878906 192.875 132.238281 192.277344 131.894531 Z M 61.234375 131.503906 L 61.234375 238.148438 L 24.535156 216.890625 L 24.535156 152.65625 Z M 78.15625 230.636719 L 65.109375 238.15625 L 65.109375 131.5 L 78.15625 139.011719 Z M 130.878906 273.703125 L 126.75 276.085938 L 117.84375 270.925781 L 117.84375 139.015625 L 130.878906 131.503906 Z M 130.878906 273.703125 " fill-opacity="1" fill-rule="nonzero"/></g><g fill="#475be8" fill-opacity="1"><g transform="translate(199.143055, 232.672706)"><g><path d="M 14.375 0 L 10.59375 -5.390625 C 10.125 -5.359375 9.753906 -5.34375 9.484375 -5.34375 L 5.140625 -5.34375 L 5.140625 0 L 2.640625 0 L 2.640625 -17.5625 L 9.484375 -17.5625 C 11.753906 -17.5625 13.539062 -17.015625 14.84375 -15.921875 C 16.15625 -14.835938 16.8125 -13.34375 16.8125 -11.4375 C 16.8125 -10.082031 16.476562 -8.925781 15.8125 -7.96875 C 15.144531 -7.019531 14.191406 -6.328125 12.953125 -5.890625 L 17.109375 0 Z M 9.40625 -7.484375 C 11 -7.484375 12.210938 -7.820312 13.046875 -8.5 C 13.878906 -9.1875 14.296875 -10.164062 14.296875 -11.4375 C 14.296875 -12.707031 13.878906 -13.679688 13.046875 -14.359375 C 12.210938 -15.035156 11 -15.375 9.40625 -15.375 L 5.140625 -15.375 L 5.140625 -7.484375 Z M 9.40625 -7.484375 "/></g></g></g><g fill="#475be8" fill-opacity="1"><g transform="translate(230.247691, 232.672706)"><g><path d="M 15.375 -2.1875 L 15.375 0 L 2.640625 0 L 2.640625 -17.5625 L 15.03125 -17.5625 L 15.03125 -15.375 L 5.140625 -15.375 L 5.140625 -9.984375 L 13.953125 -9.984375 L 13.953125 -7.859375 L 5.140625 -7.859375 L 5.140625 -2.1875 Z M 15.375 -2.1875 "/></g></g></g><g fill="#475be8" fill-opacity="1"><g transform="translate(259.92288, 232.672706)"><g><path d="M 13.828125 -4.390625 L 4.484375 -4.390625 L 2.5625 0 L -0.03125 0 L 7.921875 -17.5625 L 10.40625 -17.5625 L 18.390625 0 L 15.765625 0 Z M 12.953125 -6.40625 L 9.15625 -15 L 5.375 -6.40625 Z M 12.953125 -6.40625 "/></g></g></g><g fill="#475be8" fill-opacity="1"><g transform="translate(291.152906, 232.672706)"><g><path d="M 2.640625 -17.5625 L 5.140625 -17.5625 L 5.140625 -2.1875 L 14.65625 -2.1875 L 14.65625 0 L 2.640625 0 Z M 2.640625 -17.5625 "/></g></g></g><g fill="#475be8" fill-opacity="1"><g transform="translate(318.922153, 232.672706)"><g/></g></g><g fill="#475be8" fill-opacity="1"><g transform="translate(338.541022, 232.672706)"><g><path d="M 15.375 -2.1875 L 15.375 0 L 2.640625 0 L 2.640625 -17.5625 L 15.03125 -17.5625 L 15.03125 -15.375 L 5.140625 -15.375 L 5.140625 -9.984375 L 13.953125 -9.984375 L 13.953125 -7.859375 L 5.140625 -7.859375 L 5.140625 -2.1875 Z M 15.375 -2.1875 "/></g></g></g><g fill="#475be8" fill-opacity="1"><g transform="translate(368.216214, 232.672706)"><g><path d="M 7.75 0.203125 C 6.425781 0.203125 5.148438 0 3.921875 -0.40625 C 2.691406 -0.820312 1.726562 -1.351562 1.03125 -2 L 1.953125 -3.96875 C 2.628906 -3.363281 3.488281 -2.875 4.53125 -2.5 C 5.570312 -2.125 6.644531 -1.9375 7.75 -1.9375 C 9.207031 -1.9375 10.296875 -2.179688 11.015625 -2.671875 C 11.734375 -3.160156 12.09375 -3.816406 12.09375 -4.640625 C 12.09375 -5.242188 11.894531 -5.734375 11.5 -6.109375 C 11.113281 -6.484375 10.628906 -6.769531 10.046875 -6.96875 C 9.472656 -7.175781 8.660156 -7.40625 7.609375 -7.65625 C 6.285156 -7.96875 5.21875 -8.28125 4.40625 -8.59375 C 3.59375 -8.914062 2.894531 -9.40625 2.3125 -10.0625 C 1.738281 -10.726562 1.453125 -11.625 1.453125 -12.75 C 1.453125 -13.6875 1.695312 -14.53125 2.1875 -15.28125 C 2.6875 -16.03125 3.4375 -16.628906 4.4375 -17.078125 C 5.445312 -17.535156 6.695312 -17.765625 8.1875 -17.765625 C 9.21875 -17.765625 10.234375 -17.628906 11.234375 -17.359375 C 12.242188 -17.097656 13.109375 -16.710938 13.828125 -16.203125 L 13 -14.203125 C 12.257812 -14.671875 11.472656 -15.023438 10.640625 -15.265625 C 9.804688 -15.515625 8.988281 -15.640625 8.1875 -15.640625 C 6.757812 -15.640625 5.691406 -15.378906 4.984375 -14.859375 C 4.273438 -14.335938 3.921875 -13.664062 3.921875 -12.84375 C 3.921875 -12.238281 4.117188 -11.75 4.515625 -11.375 C 4.921875 -11 5.421875 -10.707031 6.015625 -10.5 C 6.609375 -10.289062 7.414062 -10.070312 8.4375 -9.84375 C 9.75 -9.519531 10.804688 -9.195312 11.609375 -8.875 C 12.421875 -8.5625 13.113281 -8.078125 13.6875 -7.421875 C 14.257812 -6.773438 14.546875 -5.898438 14.546875 -4.796875 C 14.546875 -3.867188 14.296875 -3.023438 13.796875 -2.265625 C 13.296875 -1.503906 12.535156 -0.898438 11.515625 -0.453125 C 10.492188 -0.015625 9.238281 0.203125 7.75 0.203125 Z M 7.75 0.203125 "/></g></g></g><g fill="#475be8" fill-opacity="1"><g transform="translate(396.662573, 232.672706)"><g><path d="M 6.125 -15.375 L 0.09375 -15.375 L 0.09375 -17.5625 L 14.625 -17.5625 L 14.625 -15.375 L 8.609375 -15.375 L 8.609375 0 L 6.125 0 Z M 6.125 -15.375 "/></g></g></g><g fill="#475be8" fill-opacity="1"><g transform="translate(424.256268, 232.672706)"><g><path d="M 13.828125 -4.390625 L 4.484375 -4.390625 L 2.5625 0 L -0.03125 0 L 7.921875 -17.5625 L 10.40625 -17.5625 L 18.390625 0 L 15.765625 0 Z M 12.953125 -6.40625 L 9.15625 -15 L 5.375 -6.40625 Z M 12.953125 -6.40625 "/></g></g></g><g fill="#475be8" fill-opacity="1"><g transform="translate(455.486299, 232.672706)"><g><path d="M 6.125 -15.375 L 0.09375 -15.375 L 0.09375 -17.5625 L 14.625 -17.5625 L 14.625 -15.375 L 8.609375 -15.375 L 8.609375 0 L 6.125 0 Z M 6.125 -15.375 "/></g></g></g><g fill="#475be8" fill-opacity="1"><g transform="translate(483.079994, 232.672706)"><g><path d="M 15.375 -2.1875 L 15.375 0 L 2.640625 0 L 2.640625 -17.5625 L 15.03125 -17.5625 L 15.03125 -15.375 L 5.140625 -15.375 L 5.140625 -9.984375 L 13.953125 -9.984375 L 13.953125 -7.859375 L 5.140625 -7.859375 L 5.140625 -2.1875 Z M 15.375 -2.1875 "/></g></g></g></svg>