<svg xmlns="http://www.w3.org/2000/svg" xmlns:xlink="http://www.w3.org/1999/xlink" width="700" zoomAndPan="magnify" viewBox="0 0 525 374.999991" height="500" preserveAspectRatio="xMidYMid meet" version="1.0"><defs><g/><clipPath id="c636dd907a"><path d="M 0 52.75 L 233.226562 52.75 L 233.226562 322 L 0 322 Z M 0 52.75 " clip-rule="nonzero"/></clipPath></defs><rect x="-52.5" width="630" fill="#ffffff" y="-37.499999" height="449.999989" fill-opacity="1"/><rect x="-52.5" width="630" fill="#ffffff" y="-37.499999" height="449.999989" fill-opacity="1"/><rect x="-52.5" width="630" fill="#ffffff" y="-37.499999" height="449.999989" fill-opacity="1"/><path fill="#00aeef" d="M 158.984375 114.601562 L 158.984375 294.925781 L 151.53125 299.230469 L 138.210938 291.511719 L 138.210938 126.582031 L 151.53125 118.898438 Z M 158.984375 114.601562 " fill-opacity="1" fill-rule="nonzero"/><path fill="#00aeef" d="M 94.226562 126.582031 L 94.226562 241.976562 L 73.4375 253.964844 L 73.4375 114.601562 L 80.90625 118.898438 Z M 94.226562 126.582031 " fill-opacity="1" fill-rule="nonzero"/><g clip-path="url(#c636dd907a)"><path fill="#1e3f62" d="M 232.023438 119.203125 L 117.410156 53.082031 C 117.367188 53.058594 117.328125 53.042969 117.285156 53.023438 C 117.207031 52.984375 117.136719 52.953125 117.054688 52.921875 C 116.980469 52.890625 116.90625 52.871094 116.828125 52.851562 C 116.757812 52.832031 116.6875 52.816406 116.613281 52.804688 C 116.523438 52.792969 116.4375 52.78125 116.347656 52.777344 C 116.304688 52.777344 116.261719 52.765625 116.222656 52.765625 C 116.195312 52.765625 116.171875 52.773438 116.144531 52.773438 C 116.054688 52.777344 115.96875 52.785156 115.882812 52.800781 C 115.8125 52.808594 115.742188 52.820312 115.671875 52.832031 C 115.597656 52.851562 115.519531 52.875 115.449219 52.90625 C 115.375 52.929688 115.304688 52.953125 115.238281 52.984375 C 115.164062 53.019531 115.101562 53.058594 115.035156 53.09375 C 114.972656 53.132812 114.902344 53.167969 114.84375 53.214844 C 114.78125 53.257812 114.722656 53.308594 114.664062 53.359375 C 114.605469 53.410156 114.550781 53.460938 114.496094 53.515625 C 114.445312 53.570312 114.402344 53.625 114.355469 53.683594 C 114.300781 53.753906 114.25 53.820312 114.207031 53.890625 C 114.195312 53.914062 114.175781 53.929688 114.160156 53.957031 C 114.140625 53.992188 114.128906 54.035156 114.105469 54.078125 C 114.066406 54.152344 114.03125 54.234375 114 54.3125 C 113.976562 54.386719 113.953125 54.457031 113.933594 54.53125 C 113.914062 54.609375 113.894531 54.679688 113.882812 54.757812 C 113.871094 54.839844 113.863281 54.925781 113.855469 55.007812 C 113.851562 55.054688 113.84375 55.097656 113.84375 55.144531 L 113.84375 315.476562 L 95.425781 304.855469 C 95.425781 304.855469 95.421875 304.855469 95.421875 304.855469 L 89.5 301.445312 C 89.5 301.445312 89.496094 301.445312 89.496094 301.445312 L 82.101562 297.175781 L 82.097656 297.171875 L 24.789062 264.113281 C 24.789062 264.113281 24.789062 264.113281 24.785156 264.113281 L 3.984375 252.117188 L 3.984375 122.636719 L 78.519531 79.644531 L 78.519531 114.78125 L 74.625 112.542969 C 74.605469 112.53125 74.582031 112.53125 74.5625 112.519531 C 74.398438 112.429688 74.226562 112.355469 74.046875 112.308594 C 74.035156 112.304688 74.027344 112.304688 74.011719 112.304688 C 73.84375 112.261719 73.671875 112.238281 73.492188 112.234375 C 73.441406 112.234375 73.394531 112.234375 73.335938 112.238281 C 73.195312 112.246094 73.054688 112.265625 72.910156 112.296875 C 72.863281 112.304688 72.820312 112.3125 72.769531 112.328125 C 72.585938 112.378906 72.410156 112.445312 72.234375 112.546875 L 22.40625 141.296875 C 21.671875 141.722656 21.214844 142.507812 21.214844 143.359375 L 21.214844 225.074219 C 21.214844 225.097656 21.222656 225.125 21.222656 225.148438 C 21.226562 225.234375 21.238281 225.320312 21.25 225.402344 C 21.257812 225.472656 21.269531 225.550781 21.28125 225.621094 C 21.300781 225.699219 21.324219 225.765625 21.351562 225.839844 C 21.375 225.917969 21.402344 225.988281 21.429688 226.0625 C 21.460938 226.128906 21.503906 226.195312 21.539062 226.257812 C 21.578125 226.328125 21.617188 226.394531 21.660156 226.453125 C 21.703125 226.515625 21.753906 226.570312 21.804688 226.628906 C 21.855469 226.6875 21.90625 226.746094 21.960938 226.796875 C 22.011719 226.847656 22.070312 226.890625 22.132812 226.9375 C 22.199219 226.992188 22.265625 227.042969 22.34375 227.089844 C 22.363281 227.101562 22.378906 227.117188 22.402344 227.132812 L 72.246094 256.023438 L 72.25 256.027344 C 72.433594 256.132812 72.628906 256.214844 72.828125 256.269531 C 73.03125 256.324219 73.230469 256.347656 73.433594 256.347656 C 73.519531 256.347656 73.605469 256.324219 73.691406 256.3125 C 73.808594 256.300781 73.929688 256.296875 74.042969 256.269531 C 74.105469 256.25 74.164062 256.214844 74.226562 256.191406 C 74.359375 256.144531 74.496094 256.105469 74.617188 256.03125 C 74.621094 256.03125 74.625 256.027344 74.625 256.027344 L 95.414062 244.039062 C 96.148438 243.613281 96.601562 242.828125 96.601562 241.976562 L 96.601562 126.582031 C 96.601562 125.730469 96.148438 124.945312 95.414062 124.519531 L 83.277344 117.523438 L 83.277344 75.523438 C 83.277344 75.476562 83.265625 75.433594 83.265625 75.386719 C 83.261719 75.300781 83.253906 75.21875 83.238281 75.132812 C 83.226562 75.058594 83.210938 74.980469 83.1875 74.90625 C 83.167969 74.835938 83.152344 74.761719 83.121094 74.691406 C 83.09375 74.605469 83.054688 74.53125 83.011719 74.449219 C 82.992188 74.414062 82.980469 74.371094 82.957031 74.328125 C 82.945312 74.308594 82.925781 74.285156 82.910156 74.265625 C 82.863281 74.191406 82.8125 74.125 82.761719 74.058594 C 82.714844 74 82.675781 73.941406 82.625 73.890625 C 82.570312 73.835938 82.515625 73.785156 82.453125 73.734375 C 82.394531 73.683594 82.335938 73.632812 82.277344 73.585938 C 82.214844 73.542969 82.152344 73.503906 82.082031 73.46875 C 82.015625 73.429688 81.953125 73.390625 81.878906 73.359375 C 81.8125 73.328125 81.738281 73.304688 81.664062 73.277344 C 81.589844 73.253906 81.519531 73.226562 81.441406 73.210938 C 81.375 73.195312 81.300781 73.183594 81.230469 73.175781 C 81.140625 73.164062 81.058594 73.152344 80.96875 73.152344 C 80.945312 73.152344 80.917969 73.144531 80.894531 73.144531 C 80.851562 73.144531 80.808594 73.152344 80.765625 73.15625 C 80.675781 73.160156 80.589844 73.167969 80.5 73.179688 C 80.429688 73.195312 80.355469 73.210938 80.289062 73.230469 C 80.214844 73.253906 80.136719 73.273438 80.0625 73.304688 C 79.980469 73.332031 79.910156 73.367188 79.832031 73.40625 C 79.792969 73.425781 79.75 73.4375 79.707031 73.464844 L 0.414062 119.203125 C -0.320312 119.628906 -0.773438 120.414062 -0.773438 121.265625 L -0.773438 253.492188 C -0.773438 254.34375 -0.320312 255.128906 0.414062 255.554688 L 22.40625 268.234375 L 22.410156 268.234375 L 79.714844 301.292969 L 87.105469 305.5625 L 87.109375 305.5625 L 93.03125 308.972656 C 93.03125 308.972656 93.035156 308.976562 93.035156 308.976562 L 115.03125 321.660156 C 115.058594 321.675781 115.089844 321.679688 115.121094 321.695312 C 115.246094 321.765625 115.382812 321.820312 115.519531 321.863281 C 115.570312 321.878906 115.617188 321.894531 115.667969 321.90625 C 115.839844 321.949219 116.023438 321.976562 116.210938 321.980469 C 116.214844 321.980469 116.214844 321.980469 116.214844 321.980469 L 116.222656 321.980469 C 116.414062 321.980469 116.601562 321.949219 116.777344 321.90625 C 116.824219 321.894531 116.871094 321.878906 116.917969 321.867188 C 117.050781 321.824219 117.179688 321.773438 117.304688 321.710938 C 117.355469 321.683594 117.402344 321.660156 117.453125 321.628906 C 117.59375 321.546875 117.722656 321.449219 117.839844 321.335938 C 117.859375 321.316406 117.878906 321.304688 117.898438 321.289062 C 118.03125 321.152344 118.140625 321 118.242188 320.839844 C 118.253906 320.820312 118.273438 320.808594 118.28125 320.789062 C 118.304688 320.746094 118.3125 320.707031 118.335938 320.664062 C 118.375 320.585938 118.40625 320.511719 118.4375 320.4375 C 118.464844 320.363281 118.488281 320.289062 118.503906 320.210938 C 118.527344 320.140625 118.542969 320.070312 118.554688 319.992188 C 118.566406 319.90625 118.574219 319.820312 118.582031 319.730469 C 118.585938 319.683594 118.59375 319.644531 118.59375 319.601562 L 118.59375 59.265625 L 228.441406 122.636719 L 228.441406 252.113281 L 211.199219 262.050781 L 211.199219 143.355469 C 211.199219 142.503906 210.75 141.71875 210.011719 141.292969 L 160.171875 112.539062 C 160.003906 112.441406 159.820312 112.375 159.640625 112.320312 C 159.59375 112.308594 159.546875 112.300781 159.496094 112.285156 C 159.351562 112.257812 159.214844 112.234375 159.070312 112.230469 C 159.019531 112.230469 158.96875 112.226562 158.917969 112.226562 C 158.738281 112.230469 158.558594 112.253906 158.386719 112.296875 C 158.382812 112.296875 158.375 112.296875 158.371094 112.300781 C 158.1875 112.351562 158.015625 112.425781 157.851562 112.515625 C 157.832031 112.523438 157.8125 112.527344 157.796875 112.535156 L 137.015625 124.515625 C 136.277344 124.941406 135.828125 125.726562 135.828125 126.578125 L 135.828125 291.507812 C 135.828125 292.355469 136.277344 293.136719 137.011719 293.5625 L 150.335938 301.285156 C 150.707031 301.5 151.117188 301.605469 151.53125 301.605469 C 151.945312 301.605469 152.355469 301.5 152.726562 301.285156 L 160.179688 296.980469 C 160.914062 296.554688 161.371094 295.769531 161.371094 294.921875 L 161.371094 118.726562 L 206.449219 144.730469 L 206.449219 266.175781 C 206.449219 266.21875 206.460938 266.261719 206.460938 266.308594 C 206.464844 266.394531 206.472656 266.476562 206.488281 266.5625 C 206.5 266.636719 206.515625 266.714844 206.539062 266.789062 C 206.558594 266.863281 206.578125 266.933594 206.605469 267.003906 C 206.632812 267.089844 206.671875 267.164062 206.710938 267.242188 C 206.730469 267.277344 206.738281 267.320312 206.765625 267.359375 C 206.773438 267.375 206.789062 267.386719 206.804688 267.410156 C 206.90625 267.574219 207.015625 267.726562 207.152344 267.859375 C 207.171875 267.878906 207.1875 267.886719 207.203125 267.902344 C 207.320312 268.015625 207.457031 268.113281 207.597656 268.199219 C 207.644531 268.226562 207.695312 268.253906 207.746094 268.277344 C 207.867188 268.339844 207.996094 268.390625 208.132812 268.433594 C 208.179688 268.445312 208.226562 268.46875 208.273438 268.476562 C 208.449219 268.519531 208.636719 268.546875 208.828125 268.546875 L 208.835938 268.546875 C 209.023438 268.546875 209.203125 268.519531 209.382812 268.476562 C 209.433594 268.464844 209.480469 268.445312 209.53125 268.429688 C 209.667969 268.386719 209.804688 268.332031 209.929688 268.265625 C 209.960938 268.25 209.988281 268.246094 210.019531 268.230469 L 232.023438 255.550781 C 232.761719 255.125 233.210938 254.339844 233.210938 253.488281 L 233.210938 121.265625 C 233.210938 120.414062 232.757812 119.628906 232.023438 119.203125 Z M 71.058594 118.726562 L 71.058594 249.835938 L 25.980469 223.703125 L 25.980469 144.730469 Z M 91.847656 240.601562 L 75.820312 249.84375 L 75.820312 118.71875 L 91.847656 127.953125 Z M 156.605469 293.550781 L 151.535156 296.476562 L 140.589844 290.136719 L 140.589844 127.957031 L 156.605469 118.722656 Z M 156.605469 293.550781 " fill-opacity="1" fill-rule="nonzero"/></g><g fill="#000000" fill-opacity="1"><g transform="translate(229.96959, 185.567947)"><g><path d="M 6.09375 -40.609375 L 23.203125 -40.609375 C 27.492188 -40.609375 31.300781 -39.753906 34.625 -38.046875 C 37.957031 -36.347656 40.539062 -33.960938 42.375 -30.890625 C 44.21875 -27.816406 45.140625 -24.289062 45.140625 -20.3125 C 45.140625 -16.320312 44.21875 -12.789062 42.375 -9.71875 C 40.539062 -6.644531 37.957031 -4.253906 34.625 -2.546875 C 31.300781 -0.847656 27.492188 0 23.203125 0 L 6.09375 0 Z M 22.859375 -5.046875 C 26.148438 -5.046875 29.039062 -5.679688 31.53125 -6.953125 C 34.03125 -8.234375 35.953125 -10.023438 37.296875 -12.328125 C 38.648438 -14.628906 39.328125 -17.289062 39.328125 -20.3125 C 39.328125 -23.320312 38.648438 -25.976562 37.296875 -28.28125 C 35.953125 -30.582031 34.03125 -32.367188 31.53125 -33.640625 C 29.039062 -34.921875 26.148438 -35.5625 22.859375 -35.5625 L 11.890625 -35.5625 L 11.890625 -5.046875 Z M 22.859375 -5.046875 "/></g></g></g><g fill="#000000" fill-opacity="1"><g transform="translate(277.893758, 185.567947)"><g><path d="M 21.640625 -14.046875 L 21.640625 0 L 15.890625 0 L 15.890625 -14.15625 L -0.234375 -40.609375 L 5.96875 -40.609375 L 18.96875 -19.203125 L 32.03125 -40.609375 L 37.765625 -40.609375 Z M 21.640625 -14.046875 "/></g></g></g><g fill="#000000" fill-opacity="1"><g transform="translate(315.432425, 185.567947)"><g><path d="M 41.015625 -40.609375 L 41.015625 0 L 36.265625 0 L 11.890625 -30.28125 L 11.890625 0 L 6.09375 0 L 6.09375 -40.609375 L 10.84375 -40.609375 L 35.21875 -10.328125 L 35.21875 -40.609375 Z M 41.015625 -40.609375 "/></g></g></g><g fill="#000000" fill-opacity="1"><g transform="translate(362.544315, 185.567947)"><g><path d="M 31.96875 -10.15625 L 10.390625 -10.15625 L 5.921875 0 L -0.0625 0 L 18.328125 -40.609375 L 24.078125 -40.609375 L 42.53125 0 L 36.4375 0 Z M 29.9375 -14.796875 L 21.171875 -34.6875 L 12.421875 -14.796875 Z M 29.9375 -14.796875 "/></g></g></g><g fill="#000000" fill-opacity="1"><g transform="translate(405.014642, 185.567947)"><g><path d="M 43.75 0 L 43.6875 -29.59375 L 29 -4.9375 L 26.34375 -4.9375 L 11.65625 -29.40625 L 11.65625 0 L 6.09375 0 L 6.09375 -40.609375 L 10.84375 -40.609375 L 27.796875 -12.0625 L 44.5 -40.609375 L 49.25 -40.609375 L 49.3125 0 Z M 43.75 0 "/></g></g></g><g fill="#000000" fill-opacity="1"><g transform="translate(460.423325, 185.567947)"><g><path d="M 6.09375 -40.609375 L 11.890625 -40.609375 L 11.890625 0 L 6.09375 0 Z M 6.09375 -40.609375 "/></g></g></g><g fill="#000000" fill-opacity="1"><g transform="translate(478.409408, 185.567947)"><g><path d="M 24.25 0.46875 C 20.1875 0.46875 16.519531 -0.429688 13.25 -2.234375 C 9.988281 -4.035156 7.425781 -6.507812 5.5625 -9.65625 C 3.707031 -12.8125 2.78125 -16.363281 2.78125 -20.3125 C 2.78125 -24.25 3.707031 -27.789062 5.5625 -30.9375 C 7.425781 -34.09375 10 -36.570312 13.28125 -38.375 C 16.570312 -40.175781 20.25 -41.078125 24.3125 -41.078125 C 27.476562 -41.078125 30.375 -40.546875 33 -39.484375 C 35.632812 -38.421875 37.878906 -36.84375 39.734375 -34.75 L 35.96875 -31.09375 C 32.914062 -34.300781 29.109375 -35.90625 24.546875 -35.90625 C 21.523438 -35.90625 18.796875 -35.226562 16.359375 -33.875 C 13.921875 -32.519531 12.015625 -30.65625 10.640625 -28.28125 C 9.273438 -25.90625 8.59375 -23.25 8.59375 -20.3125 C 8.59375 -17.363281 9.273438 -14.703125 10.640625 -12.328125 C 12.015625 -9.953125 13.921875 -8.085938 16.359375 -6.734375 C 18.796875 -5.378906 21.523438 -4.703125 24.546875 -4.703125 C 29.066406 -4.703125 32.875 -6.328125 35.96875 -9.578125 L 39.734375 -5.921875 C 37.878906 -3.828125 35.625 -2.238281 32.96875 -1.15625 C 30.320312 -0.0703125 27.414062 0.46875 24.25 0.46875 Z M 24.25 0.46875 "/></g></g></g><g fill="#475be8" fill-opacity="1"><g transform="translate(248.750087, 206.390641)"><g><path d="M 12.09375 0 L 8.90625 -4.53125 C 8.507812 -4.507812 8.195312 -4.5 7.96875 -4.5 L 4.328125 -4.5 L 4.328125 0 L 2.21875 0 L 2.21875 -14.765625 L 7.96875 -14.765625 C 9.882812 -14.765625 11.390625 -14.304688 12.484375 -13.390625 C 13.585938 -12.484375 14.140625 -11.226562 14.140625 -9.625 C 14.140625 -8.476562 13.859375 -7.503906 13.296875 -6.703125 C 12.734375 -5.898438 11.929688 -5.316406 10.890625 -4.953125 L 14.390625 0 Z M 7.90625 -6.28125 C 9.25 -6.28125 10.269531 -6.566406 10.96875 -7.140625 C 11.675781 -7.722656 12.03125 -8.550781 12.03125 -9.625 C 12.03125 -10.6875 11.675781 -11.503906 10.96875 -12.078125 C 10.269531 -12.648438 9.25 -12.9375 7.90625 -12.9375 L 4.328125 -12.9375 L 4.328125 -6.28125 Z M 7.90625 -6.28125 "/></g></g></g><g fill="#475be8" fill-opacity="1"><g transform="translate(274.897589, 206.390641)"><g><path d="M 12.9375 -1.828125 L 12.9375 0 L 2.21875 0 L 2.21875 -14.765625 L 12.640625 -14.765625 L 12.640625 -12.9375 L 4.328125 -12.9375 L 4.328125 -8.390625 L 11.734375 -8.390625 L 11.734375 -6.609375 L 4.328125 -6.609375 L 4.328125 -1.828125 Z M 12.9375 -1.828125 "/></g></g></g><g fill="#475be8" fill-opacity="1"><g transform="translate(299.843416, 206.390641)"><g><path d="M 11.625 -3.6875 L 3.78125 -3.6875 L 2.15625 0 L -0.015625 0 L 6.671875 -14.765625 L 8.75 -14.765625 L 15.46875 0 L 13.25 0 Z M 10.890625 -5.375 L 7.703125 -12.609375 L 4.515625 -5.375 Z M 10.890625 -5.375 "/></g></g></g><g fill="#475be8" fill-opacity="1"><g transform="translate(326.096327, 206.390641)"><g><path d="M 2.21875 -14.765625 L 4.328125 -14.765625 L 4.328125 -1.828125 L 12.3125 -1.828125 L 12.3125 0 L 2.21875 0 Z M 2.21875 -14.765625 "/></g></g></g><g fill="#475be8" fill-opacity="1"><g transform="translate(349.439927, 206.390641)"><g/></g></g><g fill="#475be8" fill-opacity="1"><g transform="translate(365.93188, 206.390641)"><g><path d="M 12.9375 -1.828125 L 12.9375 0 L 2.21875 0 L 2.21875 -14.765625 L 12.640625 -14.765625 L 12.640625 -12.9375 L 4.328125 -12.9375 L 4.328125 -8.390625 L 11.734375 -8.390625 L 11.734375 -6.609375 L 4.328125 -6.609375 L 4.328125 -1.828125 Z M 12.9375 -1.828125 "/></g></g></g><g fill="#475be8" fill-opacity="1"><g transform="translate(390.87771, 206.390641)"><g><path d="M 6.515625 0.171875 C 5.410156 0.171875 4.335938 0 3.296875 -0.34375 C 2.265625 -0.6875 1.453125 -1.132812 0.859375 -1.6875 L 1.640625 -3.328125 C 2.203125 -2.828125 2.921875 -2.414062 3.796875 -2.09375 C 4.679688 -1.78125 5.585938 -1.625 6.515625 -1.625 C 7.742188 -1.625 8.660156 -1.832031 9.265625 -2.25 C 9.867188 -2.664062 10.171875 -3.21875 10.171875 -3.90625 C 10.171875 -4.40625 10.003906 -4.8125 9.671875 -5.125 C 9.335938 -5.445312 8.925781 -5.691406 8.4375 -5.859375 C 7.957031 -6.035156 7.273438 -6.226562 6.390625 -6.4375 C 5.273438 -6.695312 4.375 -6.960938 3.6875 -7.234375 C 3.007812 -7.503906 2.425781 -7.914062 1.9375 -8.46875 C 1.457031 -9.019531 1.21875 -9.769531 1.21875 -10.71875 C 1.21875 -11.5 1.425781 -12.207031 1.84375 -12.84375 C 2.257812 -13.476562 2.890625 -13.984375 3.734375 -14.359375 C 4.578125 -14.742188 5.625 -14.9375 6.875 -14.9375 C 7.75 -14.9375 8.609375 -14.820312 9.453125 -14.59375 C 10.296875 -14.375 11.019531 -14.050781 11.625 -13.625 L 10.921875 -11.9375 C 10.304688 -12.332031 9.644531 -12.628906 8.9375 -12.828125 C 8.238281 -13.035156 7.550781 -13.140625 6.875 -13.140625 C 5.675781 -13.140625 4.78125 -12.921875 4.1875 -12.484375 C 3.59375 -12.046875 3.296875 -11.484375 3.296875 -10.796875 C 3.296875 -10.296875 3.460938 -9.882812 3.796875 -9.5625 C 4.128906 -9.25 4.546875 -9.003906 5.046875 -8.828125 C 5.546875 -8.648438 6.226562 -8.460938 7.09375 -8.265625 C 8.195312 -8.003906 9.085938 -7.738281 9.765625 -7.46875 C 10.441406 -7.195312 11.019531 -6.785156 11.5 -6.234375 C 11.988281 -5.691406 12.234375 -4.957031 12.234375 -4.03125 C 12.234375 -3.257812 12.019531 -2.550781 11.59375 -1.90625 C 11.175781 -1.269531 10.535156 -0.765625 9.671875 -0.390625 C 8.816406 -0.015625 7.765625 0.171875 6.515625 0.171875 Z M 6.515625 0.171875 "/></g></g></g><g fill="#475be8" fill-opacity="1"><g transform="translate(414.790527, 206.390641)"><g><path d="M 5.140625 -12.9375 L 0.078125 -12.9375 L 0.078125 -14.765625 L 12.296875 -14.765625 L 12.296875 -12.9375 L 7.234375 -12.9375 L 7.234375 0 L 5.140625 0 Z M 5.140625 -12.9375 "/></g></g></g><g fill="#475be8" fill-opacity="1"><g transform="translate(437.986556, 206.390641)"><g><path d="M 11.625 -3.6875 L 3.78125 -3.6875 L 2.15625 0 L -0.015625 0 L 6.671875 -14.765625 L 8.75 -14.765625 L 15.46875 0 L 13.25 0 Z M 10.890625 -5.375 L 7.703125 -12.609375 L 4.515625 -5.375 Z M 10.890625 -5.375 "/></g></g></g><g fill="#475be8" fill-opacity="1"><g transform="translate(464.239461, 206.390641)"><g><path d="M 5.140625 -12.9375 L 0.078125 -12.9375 L 0.078125 -14.765625 L 12.296875 -14.765625 L 12.296875 -12.9375 L 7.234375 -12.9375 L 7.234375 0 L 5.140625 0 Z M 5.140625 -12.9375 "/></g></g></g><g fill="#475be8" fill-opacity="1"><g transform="translate(487.43549, 206.390641)"><g><path d="M 12.9375 -1.828125 L 12.9375 0 L 2.21875 0 L 2.21875 -14.765625 L 12.640625 -14.765625 L 12.640625 -12.9375 L 4.328125 -12.9375 L 4.328125 -8.390625 L 11.734375 -8.390625 L 11.734375 -6.609375 L 4.328125 -6.609375 L 4.328125 -1.828125 Z M 12.9375 -1.828125 "/></g></g></g></svg>